<?xml version="1.0" standalone="no"?>
<!DOCTYPE svg PUBLIC "-//W3C//DTD SVG 20010904//EN"
 "http://www.w3.org/TR/2001/REC-SVG-20010904/DTD/svg10.dtd">
<svg version="1.0" xmlns="http://www.w3.org/2000/svg"
 width="1654.000000pt" height="978.000000pt" viewBox="0 0 1654.000000 978.000000"
 preserveAspectRatio="xMidYMid meet">

<g transform="translate(0.000000,978.000000) scale(0.100000,-0.100000)"
fill="#000000" stroke="none">
<path d="M13500 8389 c-449 -30 -1012 -104 -1850 -244 -634 -106 -1315 -279
-1995 -508 -530 -178 -1032 -388 -1590 -663 -387 -190 -663 -355 -1057 -632
-342 -240 -505 -352 -512 -352 -3 0 -6 56 -6 125 l0 125 -255 0 -255 0 0 -349
0 -349 -39 -51 c-47 -64 -220 -251 -230 -251 -5 0 -11 33 -14 73 -19 225 -162
390 -388 448 -70 18 -68 44 6 83 122 63 222 214 232 347 26 345 -149 529 -552
578 -54 7 -281 11 -567 11 l-478 0 0 -1090 0 -1090 563 0 c519 0 568 2 642 19
44 11 81 18 83 17 1 -2 -39 -79 -89 -172 -309 -571 -441 -893 -514 -1259 -31
-154 -43 -268 -51 -487 -7 -164 -9 -178 -26 -178 -26 0 -293 -96 -508 -184
-634 -256 -817 -339 -883 -400 l-38 -35 3 -368 c3 -367 3 -368 26 -401 33 -46
66 -42 171 17 248 140 1081 535 1384 657 119 48 147 53 168 28 12 -15 49 -16
384 -11 377 6 620 21 960 57 1365 148 2677 523 3850 1100 707 349 1359 778
1902 1253 750 656 1328 1448 1646 2257 217 551 328 1083 353 1688 9 216 22
202 -190 201 -89 -1 -217 -6 -286 -10z m-330 -194 c0 -9 -133 -71 -365 -171
-252 -108 -445 -203 -660 -327 -248 -142 -387 -237 -815 -557 -249 -186 -423
-310 -435 -310 -14 0 5 93 41 199 42 124 176 405 259 541 124 205 260 361 347
400 111 48 895 171 1377 214 159 15 251 19 251 11z m-1955 -422 c-175 -264
-243 -400 -367 -738 -52 -142 -70 -201 -92 -297 -4 -19 -56 -68 -189 -176
-100 -83 -234 -199 -297 -258 -123 -115 -239 -214 -251 -214 -20 0 17 275 62
460 65 266 238 751 333 935 103 200 231 293 491 355 156 37 399 87 404 83 2
-1 -40 -69 -94 -150z m-793 -95 c-145 -235 -239 -433 -323 -677 -80 -232 -126
-433 -159 -696 -38 -307 -53 -345 -182 -451 -46 -37 -141 -122 -213 -189 -229
-212 -420 -373 -431 -362 -9 8 -4 441 6 612 27 436 82 740 191 1069 88 264
181 407 306 473 32 17 101 43 153 58 52 14 178 53 280 85 236 75 350 109 373
109 18 1 18 -1 -1 -31z m2518 0 c47 -24 78 -67 89 -121 6 -28 11 -33 48 -38
91 -12 178 -106 265 -286 63 -131 98 -268 98 -382 -1 -268 -144 -454 -294
-382 -87 42 -128 146 -108 268 20 116 50 203 71 203 10 0 18 -6 17 -13 -1 -14
155 -267 167 -267 15 0 6 67 -17 133 -49 138 -187 340 -208 303 -4 -8 -17 -75
-28 -148 -41 -270 -83 -338 -208 -338 -94 0 -163 52 -222 170 -56 110 -74 199
-74 350 0 121 3 144 28 220 76 228 177 342 311 349 12 1 41 -9 65 -21z m-3635
-454 c-146 -333 -160 -381 -224 -740 -61 -341 -70 -440 -82 -889 l-12 -410
-81 -83 c-287 -295 -1483 -1201 -1981 -1502 -287 -173 -855 -465 -1159 -595
-489 -209 -1006 -397 -1030 -374 -13 12 10 312 35 450 57 320 182 683 359
1044 130 265 340 585 571 870 99 123 248 275 268 275 8 0 11 -98 11 -345 l0
-345 255 0 255 0 2 588 3 587 26 33 c89 114 593 462 1173 811 318 191 846 453
1254 623 174 72 406 151 410 139 2 -5 -22 -67 -53 -137z m3005 -299 c27 -20
84 -79 127 -132 55 -68 105 -116 170 -165 117 -86 129 -102 111 -159 -7 -25
-30 -62 -54 -86 -39 -41 -43 -43 -101 -43 -83 0 -125 20 -211 104 l-74 71 5
-65 c4 -36 9 -158 13 -271 l7 -206 -28 -21 c-21 -17 -41 -22 -82 -22 -53 0
-56 2 -113 58 -71 71 -153 195 -229 347 -118 232 -125 336 -28 395 18 11 40
20 50 20 26 0 96 -69 163 -160 l59 -81 5 178 c5 190 8 203 61 247 44 38 89 35
149 -9z m-983 -267 c35 -37 62 -89 87 -165 20 -59 16 -80 -21 -123 -56 -67
-147 -17 -192 106 -38 99 -29 162 28 197 39 25 64 20 98 -15z m-6486 -297
c102 -32 144 -95 144 -216 0 -178 -88 -235 -367 -235 l-138 0 0 236 0 236 163
-5 c89 -2 178 -9 198 -16z m6725 -6 c133 -78 390 -468 402 -610 4 -48 1 -56
-23 -80 -24 -25 -32 -27 -86 -23 -78 6 -150 55 -239 165 -156 194 -246 436
-197 533 22 44 83 50 143 15z m-1371 -347 c-223 -232 -603 -598 -734 -706 -64
-53 -300 -278 -526 -502 -875 -866 -1416 -1306 -2277 -1853 -382 -243 -572
-344 -1198 -635 -411 -191 -479 -221 -914 -404 -171 -71 -475 -210 -676 -308
-334 -162 -530 -250 -559 -250 -8 0 -11 70 -11 244 l0 245 35 28 c122 101 954
438 1885 763 669 234 1155 463 1810 853 581 347 1113 750 1820 1382 622 556
1375 1205 1398 1205 3 0 -20 -28 -53 -62z m1167 -75 c22 -21 85 -90 139 -154
134 -160 220 -241 292 -280 34 -17 64 -33 65 -35 2 -1 -1 -28 -8 -58 -26 -125
-120 -172 -260 -130 -45 13 -69 31 -160 120 -59 57 -110 104 -113 104 -3 0 -6
-105 -7 -232 0 -210 -2 -235 -18 -258 -29 -38 -67 -53 -118 -45 -65 9 -110 53
-156 154 -22 46 -42 81 -45 78 -3 -4 0 -86 7 -184 13 -192 7 -267 -28 -327
-25 -43 -75 -59 -122 -39 -142 58 -350 450 -350 660 0 72 1 76 34 109 27 27
42 34 74 34 34 0 45 -6 76 -40 19 -22 59 -85 86 -141 28 -56 52 -100 54 -98 2
2 -3 68 -9 145 -16 178 -7 379 18 417 25 38 54 50 108 45 76 -8 110 -41 168
-162 27 -57 53 -106 58 -109 4 -3 8 74 8 171 0 148 3 185 18 224 22 57 37 67
99 68 41 0 54 -5 90 -37z m-6408 -411 c75 -28 121 -63 149 -115 32 -60 31
-201 -1 -269 -56 -115 -209 -163 -497 -156 l-120 3 -3 283 -2 284 207 -4 c183
-3 215 -6 267 -26z m5285 -442 c59 -27 162 -134 196 -204 30 -62 46 -156 26
-156 -6 0 -52 29 -101 65 -50 36 -90 61 -90 56 0 -11 92 -134 184 -246 72 -88
126 -184 126 -224 -1 -36 -32 -101 -65 -133 -34 -34 -74 -36 -121 -7 -112 69
-360 440 -393 588 -6 30 -6 62 1 98 l11 53 57 0 58 0 7 58 c4 31 9 60 12 65 8
13 47 7 92 -13z m-361 -503 c12 -13 27 -37 33 -55 10 -30 13 -32 50 -26 l39 7
116 -122 c70 -73 139 -135 173 -155 52 -31 56 -35 53 -67 -5 -71 -32 -138 -71
-179 -63 -67 -122 -54 -248 56 l-43 37 0 -146 c0 -207 -22 -293 -90 -350 -87
-74 -207 -61 -301 33 -102 102 -152 250 -153 455 -1 149 14 219 69 331 72 147
149 204 276 204 66 0 78 -3 97 -23z m-978 -368 c45 -26 70 -65 70 -113 0 -26
-14 -55 -55 -116 l-54 -80 71 -122 c39 -68 75 -127 79 -132 5 -6 42 25 91 75
90 92 137 121 164 98 32 -26 54 -87 54 -149 l0 -60 -85 -105 -85 -105 30 -60
c123 -243 105 -426 -46 -460 -50 -12 -73 4 -137 95 -57 83 -226 415 -293 577
l-48 116 -25 -14 c-15 -8 -42 -26 -61 -40 -24 -18 -45 -24 -70 -22 -51 4 -70
47 -70 159 0 77 3 89 29 130 15 24 47 65 70 91 61 69 298 257 325 258 4 0 25
-9 46 -21z"/>
<path d="M12736 7484 c-12 -31 -5 -220 9 -283 21 -89 71 -178 119 -213 22 -16
43 -25 46 -21 9 11 43 293 36 301 -3 3 -14 -2 -24 -11 -10 -10 -21 -17 -23
-17 -3 0 -34 59 -69 130 -62 125 -81 148 -94 114z"/>
<path d="M7408 6270 c-371 -67 -638 -414 -638 -829 0 -182 40 -354 118 -506
62 -122 191 -252 303 -308 136 -67 207 -80 429 -80 170 -1 205 2 274 21 275
76 482 278 553 542 26 95 26 505 0 600 -69 259 -270 463 -532 541 -58 18 -102
22 -265 25 -107 1 -216 -1 -242 -6z m354 -378 c80 -35 137 -118 169 -242 22
-86 19 -406 -4 -489 -33 -117 -86 -195 -158 -232 -58 -29 -206 -27 -274 5 -63
29 -127 100 -157 175 -22 53 -23 69 -23 301 l0 245 28 60 c41 87 99 159 149
184 38 20 54 22 135 18 59 -4 106 -12 135 -25z"/>
<path d="M9599 4333 c-18 -49 13 -229 55 -311 31 -62 94 -119 141 -128 20 -3
38 -4 41 -1 4 4 28 154 46 295 l5 33 -38 -37 c-34 -33 -40 -36 -55 -23 -9 7
-31 46 -50 86 -46 102 -122 147 -145 86z"/>
<path d="M5980 6680 l0 -200 265 0 265 0 0 200 0 200 -265 0 -265 0 0 -200z"/>
</g>
</svg>
